# xmcd
#
# Track frame offsets:
#	150
#	12698
#	26644
#	39360
#	51718
#	63977
#	76813
#	90473
#	103436
#	115743
#	127907
#	141797
#	154446
#	168304
#	179864
#	192170
#	207417
#	219994
#	232544
#	245601
#	258452
#	282787
#	296797
#	320132
#
# Disc length: 4431 seconds
#
# Revision: 0
# Processed by: cddbd v1.4PL0 Copyright (c) Steve Scherf et al.
# Submitted via: dBpowerAMP V4.0
#
DISCID=6a114d18
DTITLE=Louis Jordan - Father Of Rhythm 'n Blues and Rock 'n Roll
DYEAR=1900
DGENRE=Rock and Roll
TTITLE0=Swinging in a Cocoanut Tree
TTITLE1=Five Guys Named Moe
TTITLE2=It's a Low-Down Dirty Shame
TTITLE3=Is You Is, or Is You Ain't My Baby
TTITLE4=Caldonia Boogie
TTITLE5=Buzz Me
TTITLE6=Salt Pork, West Virginia
TTITLE7=Beware
TTITLE8=Choo-Choo Ch' Boogie
TTITLE9=Stone Cold Dead in the Market
TTITLE10=Ain't Nobody Here but Us Chicken
TTITLE11=Let the Good Times Roll
TTITLE12=Texas and Pacific
TTITLE13=Jack, You're Dead
TTITLE14=Reet, Petite and Gone
TTITLE15=Early in the Morning
TTITLE16=Barnyard Boogie
TTITLE17=Boogie Woogie Blue Plate
TTITLE18=Look Out
TTITLE19=Beans and Cornbread
TTITLE20=Saturday Night Fish Fry
TTITLE21=You Rascal You
TTITLE22=Blue Light Boogie
TTITLE23=Junco Partner
EXTD=
EXTT0=
EXTT1=
EXTT2=
EXTT3=
EXTT4=
EXTT5=
EXTT6=
EXTT7=
EXTT8=
EXTT9=
EXTT10=
EXTT11=
EXTT12=
EXTT13=
EXTT14=
EXTT15=
EXTT16=
EXTT17=
EXTT18=
EXTT19=
EXTT20=
EXTT21=
EXTT22=
EXTT23=
PLAYORDER=
